<svg xmlns="http://www.w3.org/2000/svg" fill="none" viewBox="0 0 17 24" height="24" width="17">
<path fill="#45443F" d="M8.63939 23.9994H8.27091C8.15815 23.9018 8.07681 23.7817 8.0078 23.6485C7.73668 23.1231 7.44522 22.6095 7.13836 22.1047C6.16417 20.5028 5.03963 19.0085 3.94158 17.4948C2.90701 16.0687 1.88414 14.6351 1.10836 13.0382C0.184695 11.1354 -0.244171 9.1526 0.141562 7.03154C0.98697 2.37848 5.442 -0.837823 10.1762 0.192994C13.2294 0.857896 15.2548 2.80444 16.3855 5.73614C16.6591 6.44483 16.786 7.19042 16.8889 7.94039V9.53228C16.8544 9.76308 16.8236 9.99452 16.7854 10.2241C16.5426 11.6727 15.9868 13 15.2622 14.2617C14.3859 15.7879 13.315 17.1746 12.2656 18.5776C11.0302 20.2295 9.81322 21.8933 8.86676 23.7417C8.81192 23.8486 8.73243 23.9306 8.63877 24L8.63939 23.9994ZM8.4533 13.0469C10.6426 13.0932 12.8356 11.3249 12.8486 8.61655C12.8621 5.92692 10.6931 4.12736 8.46932 4.14175C6.03046 4.15801 4.08885 6.1008 4.08023 8.57589C4.0716 11.0641 6.00519 13.0407 8.45268 13.0463L8.4533 13.0469Z"></path>
</svg>
