<svg xmlns="http://www.w3.org/2000/svg" fill="none" viewBox="0 0 17 14" height="14" width="17">
<path fill="#45443F" d="M0 12.2443C0 9.43303 0 6.62172 0 3.81042C2.023 5.29893 4.05025 6.78005 6.06617 8.28039C7.97725 9.70232 9.01992 9.71711 10.9423 8.29519C12.9625 6.80224 14.9812 5.30485 17 3.81042V12.3923C16.4574 13.1543 15.7278 13.3437 14.8368 13.3363C10.557 13.3008 6.27583 13.3023 1.99608 13.3348C1.10075 13.3407 0.44625 13.0463 0 12.2443Z"></path>
<path fill="#45443F" d="M17 2.4384C16.5707 3.08177 16.1642 3.73359 15.5012 4.18831C13.6425 5.46519 11.7867 6.74911 9.94925 8.05697C8.976 8.75102 8.06083 8.74116 7.09042 8.05415C5.26858 6.7646 3.41983 5.51165 1.59092 4.23195C0.885417 3.73781 0.372583 3.07051 0 2.29762V1.17137C0.364083 0.298532 1.02992 -0.00555464 1.96492 7.6596e-05C6.32967 0.0254172 10.6944 0.0226015 15.0577 7.6596e-05C15.9247 -0.00414683 16.5651 0.288677 17 1.02918V2.4384Z"></path>
</svg>
